<?xml version="1.0" encoding="utf-8"?>
<!-- Generator: Adobe Illustrator 24.3.0, SVG Export Plug-In . SVG Version: 6.00 Build 0)  -->
<svg version="1.1" id="Layer_1" xmlns="http://www.w3.org/2000/svg" xmlns:xlink="http://www.w3.org/1999/xlink" x="0px" y="0px"
	 viewBox="0 0 725 679.1" style="enable-background:new 0 0 725 679.1;" xml:space="preserve">
<style type="text/css">
	.st0{fill:#FDB516;}
	.st1{fill:#000072;}
	.st2{opacity:0.3;}
	.st3{fill:#262F6A;}
	.st4{opacity:0.55;}
	.st5{fill:#FFFFFF;}
	.st6{fill:#232323;}
	.st7{fill:#FCBC06;}
	.st8{opacity:0.7;}
</style>
<g>
	<g>
		<g>
			<g>
				<path class="st0" d="M694.5,248.6l-20.1,21.5l-9.6,10.3l-298,320.2c-7.4,8-18.6,11.3-29.1,8.6L76.5,543l-35.3-9
					c-0.1,0-0.3-0.1-0.4-0.1c-0.1,0-0.1,0-0.2,0c-5.2-1-10.2,1.9-12,6.6c0.8-3.4,2.2-6,4.2-8.6c1.2-1.6,2.7-3.2,4.3-5l0,0l361-359.2
					c8.5-8.5,20.8-11.8,32.5-8.9l256.7,65.1C698.2,226.7,702.2,240.3,694.5,248.6z"/>
				<path class="st1" d="M345.1,610.8c-2.5,0-5-0.3-7.5-0.9L41,534.7c-0.1,0-0.2-0.1-0.3-0.1l-0.2,0c-4.8-1-9.5,1.6-11.3,6.2
					l-1.3-0.4c0.8-3.3,2.1-6,4.3-8.9c1.3-1.7,2.8-3.4,4.2-4.8v0l0.2-0.2l361-359.2c8.6-8.6,21.3-12.1,33.1-9.1l256.7,65.1
					c5.4,1.4,9.6,5.4,11.2,10.7c1.6,5.4,0.3,11-3.5,15.1v0L367.4,601.1C361.5,607.4,353.4,610.8,345.1,610.8z M38.5,533
					c0.7,0,1.5,0.1,2.2,0.2l0.1,0c0.2,0,0.3,0.1,0.5,0.1l296.6,75.2c10.3,2.6,21.2-0.6,28.4-8.4L694,248.1c3.5-3.7,4.7-8.9,3.2-13.7
					c-1.4-4.9-5.2-8.5-10.2-9.8l-256.7-65.1c-11.3-2.9-23.5,0.5-31.8,8.7L37.6,527.2l-0.1,0.1c-1.4,1.4-3,3.2-4.3,4.9
					c-0.9,1.2-1.6,2.3-2.2,3.5C33.1,534,35.7,533,38.5,533z"/>
			</g>
			<g class="st2">
				<path class="st3" d="M693.6,247.4l-20.1,21.5l-9.6,10.3L366,599.4c-7.4,8-18.6,11.3-29.1,8.6L75.6,541.8l-35.3-9
					c-0.1,0-0.3-0.1-0.4-0.1c-0.1,0-0.1,0-0.2,0c-5.2-1-10.2,1.9-12,6.6c0.8-3.4,2.2-6,4.2-8.6c1.2-1.6,2.7-3.2,4.3-5l0,0l2.2-2.2
					l35.3,9l261.3,66.3c10.6,2.7,21.7-0.6,29.1-8.6l298-320.2l9.6-10.3l20.1-21.5c2.3-2.5,3.6-5.4,3.9-8.3
					C698.7,235.1,698.4,242.2,693.6,247.4z"/>
				<path class="st1" d="M344.2,609.6c-2.5,0-5-0.3-7.5-0.9L40.1,533.5c-0.1,0-0.2-0.1-0.3-0.1l-0.2,0c-4.8-1-9.5,1.6-11.3,6.2
					l-1.3-0.4c0.8-3.3,2.1-6,4.3-8.9c1.3-1.7,2.8-3.4,4.2-4.8v0l0.2-0.2l2.5-2.5l35.7,9.1L335.1,598c10.3,2.6,21.2-0.6,28.4-8.4
					l327.6-352.1c2.1-2.2,3.4-5,3.7-7.9l0.2-2.1l1,1.8c3.5,6,2.6,13.4-2.1,18.5L366.5,599.9C360.7,606.2,352.5,609.6,344.2,609.6z
					 M37.6,531.8c0.7,0,1.5,0.1,2.2,0.2l0.1,0c0.2,0,0.3,0.1,0.5,0.1L337,607.4c10.3,2.6,21.2-0.6,28.4-8.4l327.6-352.1
					c3.8-4.1,4.8-9.9,2.8-15c-0.6,2.4-1.9,4.7-3.7,6.6L364.6,590.6c-7.6,8.2-19,11.5-29.8,8.8L38.5,524.2l-1.9,1.9
					c-1.4,1.4-3,3.2-4.3,4.9c-0.9,1.2-1.6,2.3-2.2,3.5C32.2,532.8,34.8,531.8,37.6,531.8z"/>
			</g>
			<g class="st4">
				<path class="st5" d="M698,234.5c-1.1-0.6-2.2-1-3.4-1.3l-256.7-65.1c-11.6-3-24,0.4-32.5,8.9l-360,358.1l-4.3-1.1
					c-0.1,0-0.3-0.1-0.4-0.1c-0.1,0-0.1,0-0.2,0c-5.2-1-10.2,1.9-12,6.6c0.8-3.4,2.2-6,4.2-8.6c1.2-1.6,2.7-3.2,4.3-5l0,0l361-359.2
					c8.5-8.5,20.8-11.8,32.5-8.9l256.7,65.1C692.9,225.3,696.7,229.6,698,234.5z"/>
			</g>
			<g>
				<path class="st0" d="M692.4,310.3L364.8,662.3c-5.2,5.7-12.4,8.9-19.8,9.4c-3.1,0.2-6.2-0.1-9.3-0.8L84,607.1L36.2,595
					c-5.9-1.5-10-6.9-9.8-13l1.3-37c0.2-1.7,0.4-3.1,0.8-4.5c0,0,0,0,0,0c1.8-4.7,6.8-7.6,12-6.6c0.1,0,0.1,0,0.2,0l6.4,1.6
					L46,569.6c-0.2,5.5,3.5,10.4,8.8,11.7l33.1,8.3l239.1,60c3.4,0.9,6.9,1.1,10.4,0.8c7.1-0.7,13.8-4,18.8-9.3l312.3-334.7
					c3.2-3.5,5.1-8,5.3-12.7l0.4-10.9l11.1,2.8C696.1,288.4,700.1,302,692.4,310.3z"/>
				<path class="st1" d="M342.9,672.5c-2.5,0-5-0.3-7.4-0.9L36.1,595.7c-6.2-1.6-10.5-7.3-10.3-13.7l1.3-37c0.2-1.7,0.4-3.2,0.8-4.6
					v-0.2l0.1-0.1c2.1-5.1,7.4-8,12.8-6.9l0.1,0l7.1,1.8l-1.2,34.6c-0.2,5.1,3.3,9.8,8.3,11L327.1,649c3.3,0.8,6.7,1.1,10.1,0.7
					c7-0.7,13.5-4,18.3-9.1l312.3-334.7c3.1-3.4,4.9-7.7,5.1-12.3l0.4-11.7l11.9,3c5.4,1.4,9.6,5.4,11.2,10.7
					c1.6,5.4,0.3,11-3.5,15.1v0L365.3,662.8c-5.3,5.7-12.5,9.1-20.3,9.6C344.3,672.5,343.6,672.5,342.9,672.5z M29.1,540.7
					c-0.3,1.3-0.6,2.7-0.7,4.3L27.2,582c-0.2,5.7,3.7,10.9,9.2,12.3l299.4,75.9c3,0.8,6,1,9.1,0.8c7.4-0.5,14.3-3.8,19.4-9.2
					l327.6-352.1v0c3.5-3.7,4.7-8.9,3.2-13.7c-1.4-4.9-5.2-8.5-10.2-9.8l-10.3-2.6l-0.3,10c-0.2,4.9-2.1,9.6-5.5,13.2L356.6,641.5
					c-5,5.4-11.8,8.8-19.2,9.6c-3.5,0.4-7.1,0.1-10.6-0.8L54.7,582c-5.6-1.4-9.5-6.6-9.3-12.4l1.1-33.5l-5.9-1.5l0-0.7l-0.1,0.7
					C35.6,533.6,30.9,536.2,29.1,540.7L29.1,540.7z"/>
			</g>
			<g class="st2">
				<path class="st1" d="M83.5,605.1c0.2,0.5,0.3,1.2,0.5,2L36.2,595c-5.9-1.5-10-6.9-9.8-13l1.3-37c0.2-1.7,0.4-3.1,0.8-4.5
					c0,0,0,0,0,0c1.8-4.7,6.8-7.6,12-6.6c0.1,0,0.1,0,0.2,0l6.4,1.6L46,569.6c-0.2,5.5,3.5,10.4,8.8,11.7l33.1,8.3
					C87.9,589.6,81,597.6,83.5,605.1z"/>
			</g>
			<g>
				<path class="st6" d="M345.1,613.6c-2.7,0-5.5-0.3-8.2-1L40.3,537.4c-0.1,0-0.2,0-0.3-0.1c0,0-0.2,0-0.2,0
					c-3.3-0.7-6.7,1.2-8,4.5c-0.7,1.7-2.5,2.6-4.3,2.1c-1.7-0.6-2.8-2.4-2.3-4.1c0.9-3.7,2.4-6.7,4.8-9.9c1.4-1.8,3-3.6,4.4-5.1
					c0.1-0.1,0.2-0.2,0.2-0.3l361-359.2c9.3-9.3,23-13,35.8-9.8l256.7,65.1c6.4,1.6,11.3,6.3,13.1,12.6c1.9,6.3,0.3,13-4.2,17.8
					c0,0,0,0,0,0L369.4,603C363,609.9,354.2,613.6,345.1,613.6z M41.5,530.5c0.2,0,0.4,0.1,0.6,0.1l296.6,75.2
					c9.3,2.4,19.2-0.5,25.7-7.6l327.6-352.1c2.8-3,3.8-7.1,2.6-11.1c-1.2-3.9-4.2-6.9-8.2-7.9l-256.7-65.1
					c-10.4-2.6-21.6,0.4-29.2,8l-360.9,359c0,0-0.1,0.1-0.1,0.1c-0.3,0.3-0.6,0.6-0.9,0.9c0.8,0,1.7,0.1,2.5,0.3
					C41.3,530.5,41.4,530.5,41.5,530.5z M694.5,248.6L694.5,248.6L694.5,248.6z"/>
			</g>
			<g>
				<path class="st6" d="M343,675.3c-2.7,0-5.5-0.3-8.2-1L35.4,598.4c-7.4-1.9-12.7-8.8-12.4-16.5l1.3-37c0-0.1,0-0.2,0-0.2
					c0.2-1.9,0.5-3.5,0.8-5h0c0-0.2,0.1-0.4,0.2-0.6c2.5-6.3,9.2-10,15.9-8.6c0.1,0,0.2,0.1,0.3,0.1l6.5,1.7
					c1.6,0.4,2.7,1.9,2.6,3.5l-1.2,34.1c-0.1,3.8,2.5,7.3,6.2,8.2l272.1,68.3c9.3,2.4,19.2-0.5,25.7-7.6L665.8,304
					c2.7-2.9,4.2-6.6,4.3-10.5l0.4-10.9c0-1.1,0.5-2,1.4-2.7c0.8-0.6,1.9-0.8,2.9-0.6l11.1,2.8c6.4,1.6,11.3,6.3,13.1,12.6
					c1.9,6.3,0.3,13-4.2,17.8c0,0,0,0,0,0L367.3,664.7C360.9,671.6,352.1,675.3,343,675.3z M31.2,545.2L30,582.1
					c-0.2,4.4,2.9,8.4,7.2,9.5l299.4,75.9c9.3,2.4,19.2-0.5,25.7-7.6l327.6-352.1c2.8-3,3.8-7.1,2.6-11.1c-1.2-3.9-4.2-6.9-8.2-7.9
					l-6.9-1.8l-0.2,6.6c-0.2,5.6-2.4,10.9-6.2,15L358.6,643.4c-8.3,8.9-20.7,12.6-32.5,9.6L54,584.7c-6.9-1.7-11.7-8.1-11.4-15.2
					l1.1-31.3l-3.7-0.9c0,0,0,0-0.1,0c-3.4-0.6-6.7,1.2-8,4.3C31.5,542.7,31.4,543.9,31.2,545.2z M692.4,310.3L692.4,310.3
					L692.4,310.3z"/>
			</g>
			<g class="st2">
				<path class="st1" d="M692.4,310.3L364.8,662.3c-5.2,5.7-12.4,8.9-19.8,9.4l-7.6-21.4c7.1-0.7,13.8-4,18.8-9.3l312.3-334.7
					c3.2-3.5,5.1-8,5.3-12.7l0.4-10.9l11.1,2.8C696.1,288.4,700.1,302,692.4,310.3z"/>
			</g>
			<g>
				<path class="st6" d="M337.8,612.7c-0.3,0-0.6,0-0.9-0.1l-0.2,0L39.9,537.3c-1.8-0.5-2.9-2.2-2.6-4c0.4-1.8,2.1-3,3.9-2.8
					c0.3,0,0.5,0.1,0.8,0.2l296.6,75.2c1.9,0.5,3,2.4,2.5,4.2C340.7,611.7,339.3,612.7,337.8,612.7z"/>
			</g>
			<g>
				<path class="st5" d="M674.4,270.1l-0.8,23.5c-0.2,4.7-2,9.3-5.3,12.7L356.1,641c-4.6,5-10.6,8.1-17.1,9.1c-3.9,0.6-8,0.5-12-0.5
					L54.8,581.3c-5.3-1.3-9-6.2-8.8-11.7l1.2-34.1l290.6,73.7c10.6,2.7,21.7-0.6,29.1-8.6l298-320.2L674.4,270.1z"/>
				<path class="st1" d="M334.2,651.2c-2.5,0-5-0.3-7.5-0.9L54.7,582c-5.6-1.4-9.5-6.6-9.3-12.4l1.2-34.9l0.8,0.2l290.6,73.7
					c10.3,2.6,21.2-0.6,28.4-8.4l308.8-331.9l-0.9,25.4c-0.2,4.9-2.1,9.6-5.5,13.2L356.6,641.5c-4.6,4.9-10.8,8.3-17.5,9.3
					C337.5,651.1,335.9,651.2,334.2,651.2z M47.8,536.4l-1.1,33.2c-0.2,5.1,3.3,9.8,8.3,11L327.1,649c3.9,1,7.8,1.2,11.8,0.5
					c6.4-1,12.3-4.2,16.7-8.9l312.3-334.7c3.1-3.4,4.9-7.7,5.1-12.3l0.7-21.7L367.4,601.1c-7.6,8.2-19,11.5-29.8,8.8L47.8,536.4z"/>
			</g>
			<g class="st2">
				<path class="st1" d="M674.4,270.1l-0.8,23.5c-0.2,4.7-2,9.3-5.3,12.7L356.1,641c-4.6,5-10.6,8.1-17.1,9.1l0.7-19.8
					c0.2-4.5-2.8-8.4-7.2-9.5L46.7,549.6l0.5-14l290.6,73.7c10.6,2.7,21.7-0.6,29.1-8.6l298-320.2L674.4,270.1z"/>
			</g>
			<g>
				<path class="st6" d="M334.3,654c-2.7,0-5.5-0.3-8.2-1L54,584.7c-6.9-1.7-11.7-8.1-11.4-15.2l1.2-34.1c0-1.1,0.5-2,1.4-2.7
					c0.8-0.6,1.9-0.8,2.9-0.6l290.6,73.7c9.3,2.4,19.2-0.5,25.7-7.6l307.6-330.5c1-1.1,2.5-1.4,3.9-0.8c1.3,0.6,2.2,1.9,2.1,3.3
					l-0.8,23.5c-0.2,5.6-2.4,10.9-6.2,15L358.6,643.4C352.3,650.3,343.4,654,334.3,654z M50.5,540l-1,29.8c-0.1,3.8,2.5,7.3,6.2,8.2
					l272.1,68.3c9.3,2.4,19.2-0.5,25.7-7.6L665.8,304c2.7-2.9,4.2-6.6,4.3-10.5l0.5-14.2l-3.3,3.5L369.4,603
					c-8.3,8.9-20.7,12.6-32.5,9.6L50.5,540z"/>
			</g>
			<g>
				<path class="st0" d="M60.6,565.9c-14.5,13-20.5,31.5-19.5,59.8l13.2-11l10.2,16c2-25.7,7.5-45.4,23.9-56.9L60.6,565.9z"/>
			</g>
			<g class="st4">
				<path class="st5" d="M89.7,574.3c-0.1,0-0.1,0.1-0.2,0.1l-22.4-6.4c-13.5,12-19.6,28.8-19.6,53.8l-5.2,4.3
					c-1-28.3,5-46.8,19.5-59.8L89.7,574.3z"/>
			</g>
			<g>
				<path class="st6" d="M64.6,634.2c-1.2,0-2.3-0.6-2.9-1.6l-8.1-12.7l-10.2,8.5c-1,0.8-2.4,1-3.6,0.5c-1.2-0.5-2-1.7-2.1-3
					c-1.1-29.5,5.3-48.8,20.7-62.5c0.9-0.8,2.1-1.1,3.3-0.8l27.8,7.9c1.3,0.4,2.3,1.4,2.5,2.8c0.2,1.3-0.3,2.7-1.4,3.4
					C77,586.1,70.3,602.3,68,631c-0.1,1.5-1.2,2.7-2.6,3.1C65.1,634.1,64.8,634.2,64.6,634.2z M54.3,611.2c0.2,0,0.4,0,0.5,0
					c1,0.2,1.9,0.7,2.4,1.6l4.8,7.6c2.1-16.6,6.7-33.4,19-45l-19.6-5.6c-11.5,11-16.9,26.3-17.1,48.6l7.7-6.4
					C52.7,611.5,53.5,611.2,54.3,611.2z"/>
			</g>
		</g>
		<g>
			<g>
				<path class="st5" d="M211.3,44.3l115.9,426.3l-2.9,58.5c-0.4,7.2-9.7,9.7-13.6,3.7l-32.1-49L162.6,57.5
					c-1.6-5.9,1.9-12.1,7.8-13.7l27.2-7.4C203.5,34.8,209.6,38.3,211.3,44.3z"/>
			</g>
			<g>
				
					<rect x="179.4" y="108.7" transform="matrix(0.9649 -0.2626 0.2626 0.9649 -23.2594 57.8015)" class="st7" width="50.4" height="14.5"/>
			</g>
			<g class="st2">
				<path class="st1" d="M211.3,44.3l115.9,426.3l-2.9,58.5c-0.3,6.9-8.9,9.5-13.1,4.4c0.1-0.3,0.1-0.6,0.1-0.9l2.9-58.5L198.3,47.8
					c-1.6-5.9-7.7-9.4-13.7-7.8l13-3.5C203.5,34.8,209.6,38.3,211.3,44.3z"/>
			</g>
			<g>
				<path class="st6" d="M327.2,470.6l-2.9,58.5c-0.1,1.5-0.5,2.7-1.2,3.8c-2.7,4.1-9.3,4.7-12.4-0.1l-32.1-49L327.2,470.6z"/>
			</g>
			<g class="st8">
				<path class="st5" d="M322.4,533.7c-3,3.3-8.8,3.5-11.8-0.9l-32.1-49L162.6,57.5c-1.6-5.9,1.9-12.1,7.8-13.7l7.8-2.1
					c-5.9,1.6-9.4,7.7-7.8,13.7l115.9,426.3l32.1,49C319.5,532.2,320.9,533.2,322.4,533.7z"/>
			</g>
			<g>
				<path class="st6" d="M316.8,539.3c-3.5,0-6.7-1.7-8.8-4.8l-32.1-49c-0.2-0.3-0.3-0.6-0.4-0.9L159.5,58.3
					c-2.1-7.6,2.4-15.5,10-17.5l27.2-7.4c3.7-1,7.5-0.5,10.9,1.4c3.3,1.9,5.7,5,6.7,8.7l115.9,426.3c0.1,0.3,0.1,0.7,0.1,1
					l-2.9,58.5c-0.2,4.7-3.3,8.5-7.8,9.7C318.7,539.2,317.7,539.3,316.8,539.3z M281.4,482.5l31.9,48.6c1.3,1.9,3.3,2.2,4.7,1.8
					c1.4-0.4,3-1.6,3.1-3.9l2.9-58L208.2,45.1c-0.6-2.1-1.9-3.8-3.7-4.8c-1.9-1.1-4-1.3-6.1-0.8l-27.2,7.4c-4.3,1.2-6.8,5.6-5.6,9.8
					L281.4,482.5z"/>
			</g>
			<g>
				<path class="st7" d="M184.2,4.5l-18.5,5c-4,1.1-6.4,5.2-5.3,9.3l7,25.8l33.1-9l-7-25.8C192.4,5.8,188.3,3.4,184.2,4.5z"/>
			</g>
			<g class="st2">
				<path class="st1" d="M193.3,9.1l7.2,26.5l-9.1,2.5l-7.2-26.5c-1-3.6-4.7-5.8-8.3-4.8l9.1-2.5C188.6,3.4,192.3,5.5,193.3,9.1z"/>
			</g>
			<g class="st8">
				<path class="st5" d="M171.3,8.1c-3.6,1-5.7,4.7-4.8,8.3l7.2,26.5l-6.3,1.7l-7.2-26.5c-1-3.6,1.1-7.3,4.8-8.3L171.3,8.1z"/>
			</g>
			<g>
				<path class="st6" d="M167.5,47.8c-0.5,0-1.1-0.1-1.6-0.4c-0.7-0.4-1.3-1.1-1.5-1.9l-7.2-26.5c-1.4-5.3,1.7-10.8,7-12.2l20-5.4
					l0,0c2.6-0.7,5.2-0.4,7.5,1c2.3,1.3,4,3.5,4.7,6l7.2,26.5c0.5,1.7-0.5,3.4-2.2,3.9l-33.1,9C168,47.7,167.8,47.8,167.5,47.8z
					 M185.8,7.4l-20,5.4c-1.9,0.5-3.1,2.5-2.5,4.5l6.4,23.5l27-7.3l-6.4-23.5c-0.3-0.9-0.9-1.7-1.7-2.2
					C187.7,7.3,186.8,7.1,185.8,7.4L185.8,7.4z"/>
			</g>
			<g>
				<path class="st7" d="M227,102.3c15.2-4.1,30.9,4.8,35.1,20.1l22.3,82c2,7.4-2.4,15-9.7,17l-2.8-10.3c-6.2,1.7-12.7-2-14.4-8.2
					c-1.7-6.2,2-12.7,8.2-14.4l-16.9-62.2c-2.1-7.8-10.2-12.5-18.1-10.3v0L227,102.3L227,102.3z"/>
			</g>
			<g class="st8">
				<path class="st5" d="M263,201.4c1.7,6.2,8.1,9.9,14.4,8.2l2.5,9.1c-1.5,1.2-3.2,2.1-5.2,2.7l-2.8-10.3c-6.2,1.7-12.7-2-14.4-8.2
					c-1.7-6.2,2-12.7,8.2-14.4l-16.9-62.2c-2.1-7.9-10.2-12.5-18.1-10.3l-3.7-13.6c1.9-0.5,3.8-0.8,5.6-0.9l3.5,13.1
					c7.8-2.1,15.9,2.5,18.1,10.3l16.9,62.2C265,188.7,261.3,195.1,263,201.4z"/>
			</g>
			<g>
				<path class="st6" d="M182.2,132.7c-0.5,0-1.1-0.1-1.6-0.4c-0.7-0.4-1.3-1.1-1.5-1.9l-3.8-14c-0.5-1.7,0.5-3.4,2.2-3.9l48.7-13.2
					c0.8-0.2,1.7-0.1,2.4,0.3c0.7,0.4,1.3,1.1,1.5,1.9l3.8,14c0.5,1.7-0.5,3.4-2.2,3.9L183,132.6
					C182.7,132.7,182.5,132.7,182.2,132.7z M182.2,117.8l2.2,7.9l42.6-11.6l-2.2-7.9L182.2,117.8z"/>
			</g>
			<g>
				<path class="st6" d="M274.7,224.5c-0.5,0-1.1-0.1-1.6-0.4c-0.7-0.4-1.3-1.1-1.5-1.9l-2.1-7.6c-2.8,0.1-5.6-0.5-8.2-1.9
					c-3.4-2-5.9-5.2-7-9c-1.9-6.9,1.4-13.9,7.5-17.1l-16.2-59.5c-0.8-3-2.7-5.5-5.4-7c-2.7-1.5-5.8-1.9-8.8-1.1
					c-0.8,0.2-1.7,0.1-2.4-0.3c-0.7-0.4-1.3-1.1-1.5-1.9l-3.7-13.6c-0.5-1.7,0.5-3.4,2.2-3.9c8.2-2.2,16.7-1.1,24.1,3.1
					c7.4,4.2,12.6,11,14.9,19.2l22.3,82c2.5,9.1-2.9,18.4-12,20.9C275.2,224.5,275,224.5,274.7,224.5z M271.9,207.9
					c0.5,0,1.1,0.1,1.6,0.4c0.7,0.4,1.3,1.1,1.5,1.9l1.8,6.8c3.9-2.5,5.9-7.2,4.6-11.9l-22.3-82c-1.8-6.6-6-12-11.9-15.4
					c-5-2.8-10.6-3.9-16.2-3.1l2.1,7.6c3.6-0.3,7.2,0.5,10.5,2.3c4.1,2.4,7.1,6.2,8.4,10.8l16.9,62.2c0.5,1.7-0.5,3.4-2.2,3.9
					c-4.6,1.2-7.3,6-6,10.5c0.6,2.2,2,4,4,5.2c2,1.1,4.3,1.4,6.5,0.8C271.3,208,271.6,207.9,271.9,207.9z"/>
			</g>
			<g>
				<path class="st6" d="M278.5,487c-1.4,0-2.7-0.9-3-2.3c-0.5-1.7,0.5-3.4,2.2-3.9l48.7-13.2c1.7-0.5,3.4,0.5,3.9,2.2
					c0.5,1.7-0.5,3.4-2.2,3.9l-48.7,13.2C279.1,486.9,278.8,487,278.5,487z"/>
			</g>
			<g>
				<path class="st6" d="M273.5,468.1c-1.1,0-2.1-0.7-2.4-1.9c-0.4-1.3,0.4-2.7,1.8-3.1l48.7-13.2c1.3-0.4,2.7,0.4,3.1,1.8
					c0.4,1.3-0.4,2.7-1.8,3.1L274.2,468C274,468,273.8,468.1,273.5,468.1z"/>
			</g>
			<g>
				<path class="st6" d="M268.6,449.8c-1.1,0-2.1-0.7-2.4-1.9c-0.4-1.3,0.4-2.7,1.8-3.1l48.7-13.2c1.3-0.4,2.7,0.4,3.1,1.8
					c0.4,1.3-0.4,2.7-1.8,3.1l-48.7,13.2C269,449.8,268.8,449.8,268.6,449.8z"/>
			</g>
			<g>
				<path class="st6" d="M263.6,431.5c-1.1,0-2.1-0.7-2.4-1.9c-0.4-1.3,0.4-2.7,1.8-3.1l48.7-13.2c1.3-0.4,2.7,0.4,3.1,1.8
					c0.4,1.3-0.4,2.7-1.8,3.1l-48.7,13.2C264.1,431.5,263.8,431.5,263.6,431.5z"/>
			</g>
			<g>
				<path class="st6" d="M258.6,413.3c-1.1,0-2.1-0.7-2.4-1.9c-0.4-1.3,0.4-2.7,1.8-3.1l48.7-13.2c1.3-0.4,2.7,0.4,3.1,1.8
					c0.4,1.3-0.4,2.7-1.8,3.1l-48.7,13.2C259.1,413.3,258.9,413.3,258.6,413.3z"/>
			</g>
			<g>
				<path class="st6" d="M253.7,395c-1.1,0-2.1-0.7-2.4-1.9c-0.4-1.3,0.4-2.7,1.8-3.1l48.7-13.2c1.3-0.4,2.7,0.4,3.1,1.8
					s-0.4,2.7-1.8,3.1l-48.7,13.2C254.1,395,253.9,395,253.7,395z"/>
			</g>
			<g>
				<path class="st6" d="M248.7,376.8c-1.1,0-2.1-0.7-2.4-1.9c-0.4-1.3,0.4-2.7,1.8-3.1l48.7-13.2c1.3-0.4,2.7,0.4,3.1,1.8
					c0.4,1.3-0.4,2.7-1.8,3.1l-48.7,13.2C249.2,376.7,248.9,376.8,248.7,376.8z"/>
			</g>
			<g class="st2">
				<path class="st1" d="M327.2,470.6l-2.9,58.5c-0.1,1.5-0.5,2.7-1.2,3.8c-2.9,0.7-4.7,1.2-4.7,1.2l-4.1-60L327.2,470.6z"/>
			</g>
		</g>
	</g>
</g>
</svg>
